:FULLY-SPECIFIED
:FORCE-ALL-JOINTS-BE-3DOF
:DEGREES
679
root 5.35011 16.3642 0.948817 15.1381 -22.8595 -0.0260077
lfemur -40.8875 27.7196 -1.8884
ltibia 117.314 -0 0
lfoot 18.1082 -20.7236 -1.37936
ltoes 14.1168 -0 0
rfemur -34.8371 -11.2524 25.6205
rtibia 54.3434 -0 0
rfoot -24.289 -3.75784 0.238573
rtoes -0.0211274 0 0
lowerback 1.59679 -6.67166 -0.783665
upperback -1.79548 -8.92155 0.371515
thorax -2.57809 -4.43758 1.17993
lowerneck -8.52952 -3.79997 0.620872
upperneck 3.13496 -5.30946 2.93576
head 2.55477 -2.53794 0.57642
lclavicle -8.91549e-014 -2.06736e-014 0
lhumerus 25.562 -57.6401 39.9624
lradius 93.6851 -0 0
lwrist 31.3522 0 0
lhand -14.4265 -1.24981 0.0393466
lfingers 7.12502 -0 0
lthumb 11.7168 28.3833 0.032375
rclavicle -8.91549e-014 -2.06736e-014 0
rhumerus -45.4476 -7.38658 -41.8221
rradius 83.806 -0 0
rwrist -19.0897 0 0
rhand -27.3079 -46.8067 0.00858969
rfingers 7.12502 -0 0
rthumb -0.717418 -76.7845 0.00827419
680
root 5.34375 16.3677 1.07429 15.0213 -24.2437 0.00426926
lfemur -41.3823 27.512 -0.977315
ltibia 119.006 -0 0
lfoot 19.4689 -21.3903 -0.987859
ltoes 14.1508 -0 0
rfemur -34.0951 -10.5319 25.162
rtibia 54.3626 -0 0
rfoot -24.2088 -3.82452 0.204118
rtoes 0.248459 -0 0
lowerback 1.70809 -6.68497 -0.65048
upperback -1.78676 -8.93698 0.37944
thorax -2.64329 -4.44681 1.12168
lowerneck -8.4804 -3.73171 0.628497
upperneck 3.13276 -5.21147 2.81946
head 2.5349 -2.49387 0.543509
lclavicle -8.91549e-014 -2.06736e-014 0
lhumerus 25.8749 -56.3826 38.7011
lradius 93.714 -0 0
lwrist 31.4263 0 0
lhand -14.783 -1.42414 0.0281687
lfingers 7.12502 -0 0
lthumb 11.3733 28.2338 0.0231764
rclavicle -8.91549e-014 -2.06736e-014 0
rhumerus -45.0309 -7.3342 -40.7276
rradius 84.7481 -0 0
rwrist -19.2005 0 0
rhand -27.2572 -46.5826 0.00598869
rfingers 7.12502 -0 0
rthumb -0.668435 -76.5608 0.00576775
681
root 5.33739 16.3712 1.19976 14.9186 -25.6753 0.0391361
lfemur -41.7981 27.2227 -0.121443
ltibia 120.391 -0 0
lfoot 20.6496 -21.9499 -0.621672
ltoes 14.2206 -0 0
rfemur -33.432 -9.86257 24.6928
rtibia 54.4772 -0 0
rfoot -24.0256 -3.93455 0.153381
rtoes 0.607405 -0 0
lowerback 1.81889 -6.68138 -0.536092
upperback -1.77747 -8.93031 0.380207
thorax -2.70694 -4.44477 1.06498
lowerneck -8.43203 -3.67737 0.627005
upperneck 3.11643 -5.13191 2.72257
head 2.51269 -2.45865 0.517874
lclavicle -8.91549e-014 -2.06736e-014 0
lhumerus 26.0538 -55.1575 37.5567
lradius 93.6156 -0 0
lwrist 31.4722 0 0
lhand -15.1182 -1.58273 0.0176261
lfingers 7.12502 -0 0
lthumb 11.0504 28.098 0.0145
rclavicle -8.91549e-014 -2.06736e-014 0
rhumerus -44.594 -7.26847 -39.7136
rradius 85.6111 -0 0
rwrist -19.2562 0 0
rhand -27.2121 -46.36 0.00362591
rfingers 7.12502 -0 0
rthumb -0.624868 -76.3385 0.00349133
682
root 5.33103 16.3747 1.32523 14.8318 -27.1566 0.07821
lfemur -42.1305 26.8442 0.673554
ltibia 121.445 -0 0
lfoot 21.6385 -22.3985 -0.289661
ltoes 14.3281 -0 0
rfemur -32.8529 -9.25059 24.2101
rtibia 54.6933 -0 0
rfoot -23.7335 -4.09208 0.0855131
rtoes 1.06214 -0 0
lowerback 1.92894 -6.65974 -0.441999
upperback -1.76762 -8.9001 0.373236
thorax -2.76883 -4.43072 1.00994
lowerneck -8.38453 -3.6379 0.615707
upperneck 3.08461 -5.07212 2.64673
head 2.48789 -2.43288 0.500145
lclavicle -8.91549e-014 -2.06736e-014 0
lhumerus 26.1097 -53.9719 36.5193
lradius 93.3821 -0 0
lwrist 31.4882 0 0
lhand -15.4298 -1.72408 0.00810521
lfingers 7.12502 -0 0
lthumb 10.75 27.9771 0.00666572
rclavicle -8.91549e-014 -2.06736e-014 0
rhumerus -44.139 -7.1873 -38.7867
rradius 86.3861 -0 0
rwrist -19.2512 0 0
rhand -27.1729 -46.1403 0.00159656
rfingers 7.12502 -0 0
rthumb -0.58709 -76.1191 0.00153679
683
root 5.32467 16.3782 1.4507 14.7625 -28.6903 0.120972
lfemur -42.375 26.3693 1.40168
ltibia 122.147 0 0
lfoot 22.4235 -22.7324 0
ltoes 14.4748 0 0
rfemur -32.3629 -8.70221 23.7112
rtibia 55.0168 0 0
rfoot -23.3267 -4.30138 0
rtoes 1.61909 0 0
lowerback 2.03794 -6.61885 -0.369693
upperback -1.75724 -8.8449 0.35795
thorax -2.82876 -4.40391 0.956672
lowerneck -8.33803 -3.6143 0.593916
upperneck 3.03588 -5.03343 2.59357
head 2.46024 -2.41719 0.490955
lclavicle -8.91549e-014 -2.06736e-014 0
lhumerus 26.0518 -52.833 35.5808
lradius 93.0058 0 0
lwrist 31.4726 0 0
lhand -15.7158 -1.84665 0
lfingers 7.12502 0 0
lthumb 10.4744 27.8724 0
rclavicle -8.91549e-014 -2.06736e-014 0
rhumerus -43.6678 -7.08832 -37.9536
rradius 87.0646 0 0
rwrist -19.1796 0 0
rhand -27.1402 -45.9249 0
rfingers 7.12502 0 0
rthumb -0.555473 -795.904 0
684
root 5.33085 16.5442 1.6486 14.7945 -30.4348 0.144694
lfemur -42.5337 25.7739 2.09255
ltibia 122.511 -0 0
lfoot 23.0358 -22.9583 0.250356
ltoes 14.6855 -0 0
rfemur -31.948 -8.18279 23.169
rtibia 55.4557 -0 0
rfoot -22.7761 -4.57184 -0.106482
rtoes 2.30296 -0 0
lowerback 2.1523 -6.56024 -0.317209
upperback -1.74552 -8.76683 0.334241
thorax -2.88972 -4.3654 0.904274
lowerneck -8.29128 -3.60583 0.560269
upperneck 2.97431 -5.0147 2.56081
head 2.43049 -2.41102 0.489686
lclavicle 3.77691e-015 -7.95139e-016 0
lhumerus 25.9256 -51.6938 34.6662
lradius 92.461 -0 0
lwrist 31.4239 0 0
lhand -15.9838 -1.95554 -0.00692101
lfingers 7.12502 -0 0
lthumb 10.216 27.7795 -0.00569014
rclavicle 3.77691e-015 -7.95139e-016 0
rhumerus -43.1659 -6.9776 -37.1684
rradius 87.6844 -0 0
rwrist -19.0584 0 0
rhand -27.1152 -45.7036 -0.0016855
rfingers 7.12502 -0 0
rthumb -0.531319 -75.6829 -0.00162323
